<?xml version="1.0" encoding="UTF-8" standalone="no"?>
<!DOCTYPE svg PUBLIC "-//W3C//DTD SVG 1.1//EN" "http://www.w3.org/Graphics/SVG/1.1/DTD/svg11.dtd">
<svg xmlns="http://www.w3.org/2000/svg" version="1.1" viewBox="0.00 0.00 68.00 71.00">
<g stroke-width="2.00" fill="none" stroke-linecap="butt">
<path stroke="#7d8277" vector-effect="non-scaling-stroke" d="
  M 53.00 25.88
  A 3.53 3.53 0.0 0 0 49.47 22.35
  L 19.53 22.35
  A 3.53 3.53 0.0 0 0 16.00 25.88
  L 16.00 46.46
  A 3.53 3.53 0.0 0 0 19.53 49.99
  L 49.47 49.99
  A 3.53 3.53 0.0 0 0 53.00 46.46
  L 53.00 25.88"
/>
<path stroke="#7d8277" vector-effect="non-scaling-stroke" d="
  M 34.49 39.66
  C 35.90 39.66 37.53 38.35 38.79 37.29
  Q 42.70 34.00 48.90 29.35
  A 1.69 1.66 -11.2 0 0 49.52 28.44
  Q 49.76 27.58 49.59 26.30
  A 0.70 0.69 0.3 0 0 48.99 25.71
  Q 48.56 25.65 34.49 25.64
  Q 20.43 25.64 20.00 25.69
  A 0.70 0.69 -0.2 0 0 19.40 26.29
  Q 19.23 27.57 19.47 28.43
  A 1.69 1.66 11.3 0 0 20.09 29.34
  Q 26.28 33.99 30.19 37.29
  C 31.44 38.34 33.07 39.66 34.49 39.66"
/>
<path stroke="#7d8277" vector-effect="non-scaling-stroke" d="
  M 34.51 46.62
  Q 48.16 46.61 48.91 46.60
  A 0.75 0.75 0.0 0 0 49.64 45.85
  L 49.64 33.65
  A 0.40 0.40 0.0 0 0 48.99 33.34
  Q 43.53 37.88 38.74 41.46
  Q 36.66 43.02 34.51 43.02
  Q 32.36 43.02 30.28 41.47
  Q 25.49 37.89 20.02 33.35
  A 0.40 0.40 0.0 0 0 19.37 33.66
  L 19.39 45.86
  A 0.75 0.75 0.0 0 0 20.12 46.61
  Q 20.86 46.62 34.51 46.62"
/>
</g>
<path fill="#cdd8c0" d="
  M 57.22 0.00
  Q 65.98 1.51 68.00 10.31
  L 68.00 60.67
  Q 66.12 69.11 57.70 71.00
  L 10.35 71.00
  Q 1.91 69.14 0.00 60.71
  L 0.00 10.36
  Q 1.88 1.85 10.37 0.00
  L 57.22 0.00
  Z
  M 53.00 25.88
  A 3.53 3.53 0.0 0 0 49.47 22.35
  L 19.53 22.35
  A 3.53 3.53 0.0 0 0 16.00 25.88
  L 16.00 46.46
  A 3.53 3.53 0.0 0 0 19.53 49.99
  L 49.47 49.99
  A 3.53 3.53 0.0 0 0 53.00 46.46
  L 53.00 25.88
  Z"
/>
<path fill="#2c2c2d" d="
  M 53.00 46.46
  A 3.53 3.53 0.0 0 1 49.47 49.99
  L 19.53 49.99
  A 3.53 3.53 0.0 0 1 16.00 46.46
  L 16.00 25.88
  A 3.53 3.53 0.0 0 1 19.53 22.35
  L 49.47 22.35
  A 3.53 3.53 0.0 0 1 53.00 25.88
  L 53.00 46.46
  Z
  M 34.49 39.66
  C 35.90 39.66 37.53 38.35 38.79 37.29
  Q 42.70 34.00 48.90 29.35
  A 1.69 1.66 -11.2 0 0 49.52 28.44
  Q 49.76 27.58 49.59 26.30
  A 0.70 0.69 0.3 0 0 48.99 25.71
  Q 48.56 25.65 34.49 25.64
  Q 20.43 25.64 20.00 25.69
  A 0.70 0.69 -0.2 0 0 19.40 26.29
  Q 19.23 27.57 19.47 28.43
  A 1.69 1.66 11.3 0 0 20.09 29.34
  Q 26.28 33.99 30.19 37.29
  C 31.44 38.34 33.07 39.66 34.49 39.66
  Z
  M 34.51 46.62
  Q 48.16 46.61 48.91 46.60
  A 0.75 0.75 0.0 0 0 49.64 45.85
  L 49.64 33.65
  A 0.40 0.40 0.0 0 0 48.99 33.34
  Q 43.53 37.88 38.74 41.46
  Q 36.66 43.02 34.51 43.02
  Q 32.36 43.02 30.28 41.47
  Q 25.49 37.89 20.02 33.35
  A 0.40 0.40 0.0 0 0 19.37 33.66
  L 19.39 45.86
  A 0.75 0.75 0.0 0 0 20.12 46.61
  Q 20.86 46.62 34.51 46.62
  Z"
/>
<path fill="#cdd8c0" d="
  M 34.49 25.64
  Q 48.56 25.65 48.99 25.71
  A 0.70 0.69 0.3 0 1 49.59 26.30
  Q 49.76 27.58 49.52 28.44
  A 1.69 1.66 -11.2 0 1 48.90 29.35
  Q 42.70 34.00 38.79 37.29
  C 37.53 38.35 35.90 39.66 34.49 39.66
  C 33.07 39.66 31.44 38.34 30.19 37.29
  Q 26.28 33.99 20.09 29.34
  A 1.69 1.66 11.3 0 1 19.47 28.43
  Q 19.23 27.57 19.40 26.29
  A 0.70 0.69 -0.2 0 1 20.00 25.69
  Q 20.43 25.64 34.49 25.64
  Z"
/>
<path fill="#cdd8c0" d="
  M 34.51 43.02
  Q 36.66 43.02 38.74 41.46
  Q 43.53 37.88 48.99 33.34
  A 0.40 0.40 0.0 0 1 49.64 33.65
  L 49.64 45.85
  A 0.75 0.75 0.0 0 1 48.91 46.60
  Q 48.16 46.61 34.51 46.62
  Q 20.86 46.62 20.12 46.61
  A 0.75 0.75 0.0 0 1 19.39 45.86
  L 19.37 33.66
  A 0.40 0.40 0.0 0 1 20.02 33.35
  Q 25.49 37.89 30.28 41.47
  Q 32.36 43.02 34.51 43.02
  Z"
/>
</svg>
