<?xml version="1.0" encoding="UTF-8" standalone="no"?>
<!DOCTYPE svg PUBLIC "-//W3C//DTD SVG 1.1//EN" "http://www.w3.org/Graphics/SVG/1.1/DTD/svg11.dtd">
<svg xmlns="http://www.w3.org/2000/svg" version="1.1" viewBox="0.00 0.00 68.00 71.00">
<g stroke-width="2.00" fill="none" stroke-linecap="butt">
<path stroke="#676d60" vector-effect="non-scaling-stroke" d="
  M 32.17 54.16
  A 0.79 0.79 0.0 0 1 30.76 54.65
  C 25.38 47.77 16.29 42.61 7.24 43.68
  A 0.68 0.67 -0.5 0 0 6.64 44.29
  Q 6.40 46.69 7.03 48.04
  C 12.29 59.27 24.06 66.38 36.56 65.37
  Q 42.61 64.89 47.14 62.43
  C 54.12 58.65 60.16 52.83 61.75 44.70
  A 1.07 1.06 -84.9 0 0 60.69 43.43
  Q 45.08 43.65 36.30 56.18
  A 0.58 0.58 0.0 0 1 35.25 55.84
  L 35.25 44.67
  A 0.80 0.79 -86.5 0 1 36.14 43.88
  Q 38.98 44.20 40.80 43.46
  Q 48.51 40.27 51.71 33.94
  Q 55.13 27.14 54.12 21.18
  A 1.42 1.37 -62.6 0 0 54.00 20.78
  L 51.09 14.48
  A 1.94 1.94 0.0 0 0 48.93 13.40
  L 45.06 14.25
  A 0.83 0.81 -25.1 0 1 44.26 13.97
  C 41.69 10.80 38.06 4.80 33.73 5.01
  C 29.58 5.22 26.60 11.26 24.24 13.50
  A 2.13 2.13 0.0 0 1 22.06 13.98
  C 17.81 12.54 16.23 14.62 15.01 18.47
  Q 11.76 28.73 18.95 37.55
  Q 23.82 43.52 31.37 44.12
  A 0.88 0.86 2.5 0 1 32.17 44.98
  L 32.17 54.16"
/>
<path stroke="#676d60" vector-effect="non-scaling-stroke" d="
  M 34.8362 7.9478
  A 1.02 1.02 0.0 0 0 33.3937 7.9352
  L 27.3168 13.9070
  A 1.02 1.02 0.0 0 0 27.3042 15.3494
  L 33.1638 21.3122
  A 1.02 1.02 0.0 0 0 34.6063 21.3248
  L 40.6832 15.3530
  A 1.02 1.02 0.0 0 0 40.6958 13.9106
  L 34.8362 7.9478"
/>
<path stroke="#676d60" vector-effect="non-scaling-stroke" d="
  M 31.36 39.35
  Q 29.73 35.97 30.07 32.19
  A 3.57 2.92 -39.3 0 1 30.17 31.69
  L 32.01 25.36
  A 2.39 2.39 0.0 0 0 31.44 23.03
  Q 30.12 21.68 27.90 19.88
  C 26.06 18.39 23.48 17.96 21.51 16.53
  A 1.39 1.39 0.0 0 0 19.51 16.93
  Q 17.15 20.77 16.95 24.40
  C 16.80 27.28 18.92 32.61 20.51 34.77
  Q 23.87 39.33 29.89 41.09
  A 1.25 1.25 0.0 0 0 31.36 39.35"
/>
<path stroke="#676d60" vector-effect="non-scaling-stroke" d="
  M 46.83 16.65
  Q 36.45 20.29 33.41 29.52
  Q 31.67 34.83 34.38 40.26
  A 1.42 1.41 -8.4 0 0 35.41 41.02
  Q 38.87 41.61 41.43 40.21
  Q 46.27 37.56 48.91 33.32
  Q 50.95 30.04 51.21 26.51
  C 51.45 23.26 51.39 17.94 47.79 16.66
  A 1.48 1.47 45.3 0 0 46.83 16.65"
/>
<path stroke="#676d60" vector-effect="non-scaling-stroke" d="
  M 10.5031 46.9559
  A 12.72 3.57 -144.9 0 0 18.8572 57.1908
  A 12.72 3.57 -144.9 0 0 31.3169 61.5841
  A 12.72 3.57 -144.9 0 0 22.9628 51.3492
  A 12.72 3.57 -144.9 0 0 10.5031 46.9559"
/>
<path stroke="#676d60" vector-effect="non-scaling-stroke" d="
  M 57.4979 47.1206
  A 12.29 3.62 -35.4 0 0 45.3830 51.2892
  A 12.29 3.62 -35.4 0 0 37.4621 61.3594
  A 12.29 3.62 -35.4 0 0 49.5770 57.1908
  A 12.29 3.62 -35.4 0 0 57.4979 47.1206"
/>
<path stroke="#676d60" vector-effect="non-scaling-stroke" d="
  M 36.99 39.01
  C 40.00 40.28 43.48 36.33 45.06 35.27
  A 1.64 1.60 -6.0 0 0 45.68 34.52
  L 46.97 31.45
  A 0.69 0.69 0.0 0 0 46.52 30.52
  L 46.13 30.40
  A 1.77 1.76 -69.4 0 0 44.03 31.36
  Q 42.16 35.39 37.21 36.52
  A 1.31 1.31 0.0 0 0 36.99 39.01"
/>
</g>
<path fill="#cdd8c0" d="
  M 57.20 0.00
  Q 65.99 1.49 68.00 10.34
  L 68.00 60.63
  Q 66.14 69.16 57.62 71.00
  L 10.39 71.00
  Q 1.87 69.15 0.00 60.64
  L 0.00 10.37
  Q 1.87 1.84 10.39 0.00
  L 57.20 0.00
  Z
  M 32.17 54.16
  A 0.79 0.79 0.0 0 1 30.76 54.65
  C 25.38 47.77 16.29 42.61 7.24 43.68
  A 0.68 0.67 -0.5 0 0 6.64 44.29
  Q 6.40 46.69 7.03 48.04
  C 12.29 59.27 24.06 66.38 36.56 65.37
  Q 42.61 64.89 47.14 62.43
  C 54.12 58.65 60.16 52.83 61.75 44.70
  A 1.07 1.06 -84.9 0 0 60.69 43.43
  Q 45.08 43.65 36.30 56.18
  A 0.58 0.58 0.0 0 1 35.25 55.84
  L 35.25 44.67
  A 0.80 0.79 -86.5 0 1 36.14 43.88
  Q 38.98 44.20 40.80 43.46
  Q 48.51 40.27 51.71 33.94
  Q 55.13 27.14 54.12 21.18
  A 1.42 1.37 -62.6 0 0 54.00 20.78
  L 51.09 14.48
  A 1.94 1.94 0.0 0 0 48.93 13.40
  L 45.06 14.25
  A 0.83 0.81 -25.1 0 1 44.26 13.97
  C 41.69 10.80 38.06 4.80 33.73 5.01
  C 29.58 5.22 26.60 11.26 24.24 13.50
  A 2.13 2.13 0.0 0 1 22.06 13.98
  C 17.81 12.54 16.23 14.62 15.01 18.47
  Q 11.76 28.73 18.95 37.55
  Q 23.82 43.52 31.37 44.12
  A 0.88 0.86 2.5 0 1 32.17 44.98
  L 32.17 54.16
  Z"
/>
<path fill="#000100" d="
  M 32.17 54.16
  L 32.17 44.98
  A 0.88 0.86 2.5 0 0 31.37 44.12
  Q 23.82 43.52 18.95 37.55
  Q 11.76 28.73 15.01 18.47
  C 16.23 14.62 17.81 12.54 22.06 13.98
  A 2.13 2.13 0.0 0 0 24.24 13.50
  C 26.60 11.26 29.58 5.22 33.73 5.01
  C 38.06 4.80 41.69 10.80 44.26 13.97
  A 0.83 0.81 -25.1 0 0 45.06 14.25
  L 48.93 13.40
  A 1.94 1.94 0.0 0 1 51.09 14.48
  L 54.00 20.78
  A 1.42 1.37 -62.6 0 1 54.12 21.18
  Q 55.13 27.14 51.71 33.94
  Q 48.51 40.27 40.80 43.46
  Q 38.98 44.20 36.14 43.88
  A 0.80 0.79 -86.5 0 0 35.25 44.67
  L 35.25 55.84
  A 0.58 0.58 0.0 0 0 36.30 56.18
  Q 45.08 43.65 60.69 43.43
  A 1.07 1.06 -84.9 0 1 61.75 44.70
  C 60.16 52.83 54.12 58.65 47.14 62.43
  Q 42.61 64.89 36.56 65.37
  C 24.06 66.38 12.29 59.27 7.03 48.04
  Q 6.40 46.69 6.64 44.29
  A 0.68 0.67 -0.5 0 1 7.24 43.68
  C 16.29 42.61 25.38 47.77 30.76 54.65
  A 0.79 0.79 0.0 0 0 32.17 54.16
  Z
  M 34.8362 7.9478
  A 1.02 1.02 0.0 0 0 33.3937 7.9352
  L 27.3168 13.9070
  A 1.02 1.02 0.0 0 0 27.3042 15.3494
  L 33.1638 21.3122
  A 1.02 1.02 0.0 0 0 34.6063 21.3248
  L 40.6832 15.3530
  A 1.02 1.02 0.0 0 0 40.6958 13.9106
  L 34.8362 7.9478
  Z
  M 31.36 39.35
  Q 29.73 35.97 30.07 32.19
  A 3.57 2.92 -39.3 0 1 30.17 31.69
  L 32.01 25.36
  A 2.39 2.39 0.0 0 0 31.44 23.03
  Q 30.12 21.68 27.90 19.88
  C 26.06 18.39 23.48 17.96 21.51 16.53
  A 1.39 1.39 0.0 0 0 19.51 16.93
  Q 17.15 20.77 16.95 24.40
  C 16.80 27.28 18.92 32.61 20.51 34.77
  Q 23.87 39.33 29.89 41.09
  A 1.25 1.25 0.0 0 0 31.36 39.35
  Z
  M 46.83 16.65
  Q 36.45 20.29 33.41 29.52
  Q 31.67 34.83 34.38 40.26
  A 1.42 1.41 -8.4 0 0 35.41 41.02
  Q 38.87 41.61 41.43 40.21
  Q 46.27 37.56 48.91 33.32
  Q 50.95 30.04 51.21 26.51
  C 51.45 23.26 51.39 17.94 47.79 16.66
  A 1.48 1.47 45.3 0 0 46.83 16.65
  Z
  M 10.5031 46.9559
  A 12.72 3.57 -144.9 0 0 18.8572 57.1908
  A 12.72 3.57 -144.9 0 0 31.3169 61.5841
  A 12.72 3.57 -144.9 0 0 22.9628 51.3492
  A 12.72 3.57 -144.9 0 0 10.5031 46.9559
  Z
  M 57.4979 47.1206
  A 12.29 3.62 -35.4 0 0 45.3830 51.2892
  A 12.29 3.62 -35.4 0 0 37.4621 61.3594
  A 12.29 3.62 -35.4 0 0 49.5770 57.1908
  A 12.29 3.62 -35.4 0 0 57.4979 47.1206
  Z"
/>
<rect fill="#cdd8c0" x="-5.28" y="-5.20" transform="translate(34.00,14.63) rotate(-44.5)" width="10.56" height="10.40" rx="1.02"/>
<path fill="#cdd8c0" d="
  M 31.36 39.35
  A 1.25 1.25 0.0 0 1 29.89 41.09
  Q 23.87 39.33 20.51 34.77
  C 18.92 32.61 16.80 27.28 16.95 24.40
  Q 17.15 20.77 19.51 16.93
  A 1.39 1.39 0.0 0 1 21.51 16.53
  C 23.48 17.96 26.06 18.39 27.90 19.88
  Q 30.12 21.68 31.44 23.03
  A 2.39 2.39 0.0 0 1 32.01 25.36
  L 30.17 31.69
  A 3.57 2.92 -39.3 0 0 30.07 32.19
  Q 29.73 35.97 31.36 39.35
  Z"
/>
<path fill="#cdd8c0" d="
  M 47.79 16.66
  C 51.39 17.94 51.45 23.26 51.21 26.51
  Q 50.95 30.04 48.91 33.32
  Q 46.27 37.56 41.43 40.21
  Q 38.87 41.61 35.41 41.02
  A 1.42 1.41 -8.4 0 1 34.38 40.26
  Q 31.67 34.83 33.41 29.52
  Q 36.45 20.29 46.83 16.65
  A 1.48 1.47 45.3 0 1 47.79 16.66
  Z
  M 36.99 39.01
  C 40.00 40.28 43.48 36.33 45.06 35.27
  A 1.64 1.60 -6.0 0 0 45.68 34.52
  L 46.97 31.45
  A 0.69 0.69 0.0 0 0 46.52 30.52
  L 46.13 30.40
  A 1.77 1.76 -69.4 0 0 44.03 31.36
  Q 42.16 35.39 37.21 36.52
  A 1.31 1.31 0.0 0 0 36.99 39.01
  Z"
/>
<path fill="#000100" d="
  M 36.99 39.01
  A 1.31 1.31 0.0 0 1 37.21 36.52
  Q 42.16 35.39 44.03 31.36
  A 1.77 1.76 -69.4 0 1 46.13 30.40
  L 46.52 30.52
  A 0.69 0.69 0.0 0 1 46.97 31.45
  L 45.68 34.52
  A 1.64 1.60 -6.0 0 1 45.06 35.27
  C 43.48 36.33 40.00 40.28 36.99 39.01
  Z"
/>
<ellipse fill="#cdd8c0" cx="0.00" cy="0.00" transform="translate(20.91,54.27) rotate(-144.9)" rx="12.72" ry="3.57"/>
<ellipse fill="#cdd8c0" cx="0.00" cy="0.00" transform="translate(47.48,54.24) rotate(-35.4)" rx="12.29" ry="3.62"/>
</svg>
