<?xml version="1.0" encoding="UTF-8" standalone="no"?>
<!DOCTYPE svg PUBLIC "-//W3C//DTD SVG 1.1//EN" "http://www.w3.org/Graphics/SVG/1.1/DTD/svg11.dtd">
<svg xmlns="http://www.w3.org/2000/svg" version="1.1" viewBox="0.00 0.00 175.00 176.00">
<path fill="#007400" d="
  M 175.00 85.22
  L 175.00 91.23
  C 173.67 102.38 166.63 112.29 156.02 116.35
  A 0.52 0.51 67.9 0 0 155.73 117.04
  C 160.28 127.60 158.45 140.01 150.90 148.64
  C 142.25 158.53 128.24 161.98 116.11 156.58
  A 0.46 0.46 0.0 0 0 115.49 156.84
  C 111.15 168.07 100.53 175.29 88.59 176.00
  L 86.53 176.00
  C 74.44 175.37 63.91 168.06 59.46 156.80
  A 0.40 0.39 67.7 0 0 58.95 156.58
  C 33.38 167.31 9.17 142.47 19.16 117.17
  A 0.72 0.71 28.7 0 0 18.90 116.32
  C 18.34 115.93 17.38 115.76 16.66 115.38
  Q 2.38 107.76 0.00 91.50
  L 0.00 85.35
  Q 2.60 67.62 18.83 60.40
  A 0.66 0.66 0.0 0 0 19.17 59.56
  C 9.23 33.97 33.39 9.78 58.66 20.10
  A 0.69 0.69 0.0 0 0 59.56 19.72
  C 70.14 -5.59 104.83 -5.23 115.53 19.76
  A 0.50 0.49 67.7 0 0 116.16 20.03
  Q 132.78 13.89 146.22 23.73
  C 157.36 31.88 161.02 46.60 155.80 59.62
  A 0.57 0.57 0.0 0 0 156.10 60.35
  Q 172.29 67.56 175.00 85.22
  Z
  M 77.76 91.62
  Q 68.95 82.82 64.36 77.92
  Q 61.41 74.76 58.77 77.29
  Q 55.99 79.95 49.74 86.21
  Q 47.07 88.89 49.33 91.17
  Q 69.67 111.70 74.06 116.26
  C 76.46 118.76 78.24 120.16 81.08 117.33
  Q 108.94 89.58 124.69 74.04
  C 126.43 72.32 127.70 70.43 125.82 68.39
  Q 123.95 66.38 117.23 59.69
  C 115.15 57.62 113.67 56.75 111.34 59.10
  Q 101.71 68.82 78.84 91.63
  A 0.76 0.76 0.0 0 1 77.76 91.62
  Z"
/>
</svg>
